<svg width="507" height="131" viewBox="0 0 507 131" fill="none" xmlns="http://www.w3.org/2000/svg">
<rect x="233" y="99" width="265" height="14" fill="white"/>
<path d="M62.304 53.392C66.336 53.392 69.568 54.768 72 57.52C74.432 60.208 75.648 63.952 75.648 68.752V106H60.48V71.344C60.48 66.8 59.04 64.528 56.16 64.528C54.56 64.528 53.152 65.072 51.936 66.16C50.72 67.248 49.536 68.912 48.384 71.152V106H33.216V71.344C33.216 66.8 31.776 64.528 28.896 64.528C27.36 64.528 25.952 65.104 24.672 66.256C23.456 67.344 22.272 68.976 21.12 71.152V106H5.952V55.024H19.2L20.256 60.976C22.24 58.416 24.416 56.528 26.784 55.312C29.216 54.032 31.968 53.392 35.04 53.392C37.92 53.392 40.384 54.096 42.432 55.504C44.544 56.912 46.08 58.896 47.04 61.456C49.088 58.704 51.328 56.688 53.76 55.408C56.256 54.064 59.104 53.392 62.304 53.392ZM127.558 91.216C127.558 93.136 127.814 94.544 128.326 95.44C128.902 96.336 129.798 97.008 131.014 97.456L127.846 107.344C124.71 107.088 122.15 106.416 120.166 105.328C118.182 104.176 116.646 102.384 115.558 99.952C112.23 105.072 107.11 107.632 100.198 107.632C95.1418 107.632 91.1098 106.16 88.1018 103.216C85.0938 100.272 83.5898 96.432 83.5898 91.696C83.5898 86.128 85.6378 81.872 89.7338 78.928C93.8298 75.984 99.7498 74.512 107.494 74.512H112.678V72.304C112.678 69.296 112.038 67.248 110.758 66.16C109.478 65.008 107.238 64.432 104.038 64.432C102.374 64.432 100.358 64.688 97.9898 65.2C95.6218 65.648 93.1898 66.288 90.6938 67.12L87.2378 57.136C90.4378 55.92 93.7018 54.992 97.0298 54.352C100.422 53.712 103.558 53.392 106.438 53.392C113.734 53.392 119.078 54.896 122.47 57.904C125.862 60.912 127.558 65.424 127.558 71.44V91.216ZM104.614 96.784C108.07 96.784 110.758 95.152 112.678 91.888V82.864H108.934C105.478 82.864 102.886 83.472 101.158 84.688C99.4938 85.904 98.6618 87.792 98.6618 90.352C98.6618 92.4 99.1738 94 100.198 95.152C101.286 96.24 102.758 96.784 104.614 96.784ZM171.608 103.6C169.752 104.88 167.576 105.872 165.08 106.576C162.648 107.28 160.216 107.632 157.784 107.632C146.648 107.568 141.08 101.424 141.08 89.2V65.584H133.88V55.024H141.08V43.984L156.248 42.256V55.024H167.96L166.328 65.584H156.248V89.008C156.248 91.376 156.632 93.072 157.4 94.096C158.168 95.12 159.384 95.632 161.048 95.632C162.776 95.632 164.6 95.088 166.52 94L171.608 103.6ZM206.527 53.392C210.943 53.392 214.399 54.736 216.895 57.424C219.391 60.112 220.639 63.888 220.639 68.752V106H205.471V71.344C205.471 68.784 205.055 67.024 204.223 66.064C203.391 65.04 202.207 64.528 200.671 64.528C197.599 64.528 194.655 66.704 191.839 71.056V106H176.671V34.768L191.839 33.232V60.496C193.951 58.128 196.191 56.368 198.559 55.216C200.927 54 203.583 53.392 206.527 53.392Z" fill="white"/>
<path d="M261.128 64.56H254.984V90H239.24V23.472H261.032C270.12 23.472 276.936 25.136 281.48 28.464C286.088 31.792 288.392 36.88 288.392 43.728C288.392 48.016 287.368 51.6 285.32 54.48C283.272 57.296 280.04 59.696 275.624 61.68L292.52 90H274.76L261.128 64.56ZM254.984 53.712H261.608C265.128 53.712 267.752 52.912 269.48 51.312C271.272 49.712 272.168 47.184 272.168 43.728C272.168 40.528 271.208 38.192 269.288 36.72C267.432 35.248 264.552 34.512 260.648 34.512H254.984V53.712ZM337.777 75.216C337.777 77.136 338.033 78.544 338.545 79.44C339.121 80.336 340.017 81.008 341.233 81.456L338.065 91.344C334.929 91.088 332.369 90.416 330.385 89.328C328.401 88.176 326.865 86.384 325.777 83.952C322.449 89.072 317.329 91.632 310.417 91.632C305.361 91.632 301.329 90.16 298.321 87.216C295.313 84.272 293.809 80.432 293.809 75.696C293.809 70.128 295.857 65.872 299.953 62.928C304.049 59.984 309.969 58.512 317.713 58.512H322.897V56.304C322.897 53.296 322.257 51.248 320.977 50.16C319.697 49.008 317.457 48.432 314.257 48.432C312.593 48.432 310.577 48.688 308.209 49.2C305.841 49.648 303.409 50.288 300.913 51.12L297.457 41.136C300.657 39.92 303.921 38.992 307.249 38.352C310.641 37.712 313.777 37.392 316.656 37.392C323.953 37.392 329.297 38.896 332.689 41.904C336.081 44.912 337.777 49.424 337.777 55.44V75.216ZM314.833 80.784C318.289 80.784 320.977 79.152 322.897 75.888V66.864H319.153C315.697 66.864 313.105 67.472 311.377 68.688C309.713 69.904 308.881 71.792 308.881 74.352C308.881 76.4 309.393 78 310.417 79.152C311.505 80.24 312.977 80.784 314.833 80.784ZM379.714 37.392C384.13 37.392 387.586 38.736 390.082 41.424C392.578 44.112 393.826 47.888 393.826 52.752V90H378.658V55.344C378.658 52.784 378.242 51.024 377.41 50.064C376.642 49.04 375.458 48.528 373.858 48.528C370.786 48.528 367.842 50.736 365.026 55.152V90H349.858V39.024H363.106L364.162 45.072C366.338 42.512 368.674 40.592 371.17 39.312C373.73 38.032 376.578 37.392 379.714 37.392ZM420.433 17.136V90H405.265V18.768L420.433 17.136ZM451.921 39.024L436.465 61.392L453.169 90H436.081L420.913 62.16L436.465 39.024H451.921ZM475.717 37.392C479.365 37.392 482.789 37.936 485.989 39.024C489.189 40.112 492.005 41.648 494.437 43.632L488.869 52.176C484.709 49.552 480.517 48.24 476.293 48.24C474.309 48.24 472.773 48.592 471.685 49.296C470.661 49.936 470.149 50.864 470.149 52.08C470.149 53.04 470.373 53.84 470.821 54.48C471.333 55.056 472.325 55.664 473.797 56.304C475.269 56.944 477.541 57.712 480.613 58.608C485.925 60.144 489.861 62.16 492.421 64.656C495.045 67.088 496.357 70.48 496.357 74.832C496.357 78.288 495.365 81.296 493.381 83.856C491.397 86.352 488.677 88.272 485.221 89.616C481.765 90.96 477.925 91.632 473.701 91.632C469.413 91.632 465.413 90.96 461.701 89.616C458.053 88.272 454.949 86.416 452.389 84.048L459.781 75.792C464.069 79.12 468.581 80.784 473.317 80.784C475.621 80.784 477.413 80.368 478.693 79.536C480.037 78.704 480.709 77.52 480.709 75.984C480.709 74.768 480.453 73.808 479.941 73.104C479.429 72.4 478.437 71.76 476.965 71.184C475.493 70.544 473.157 69.776 469.957 68.88C464.901 67.408 461.125 65.36 458.629 62.736C456.133 60.112 454.885 56.848 454.885 52.944C454.885 50 455.717 47.376 457.381 45.072C459.109 42.704 461.541 40.848 464.677 39.504C467.877 38.096 471.557 37.392 475.717 37.392Z" fill="white"/>
</svg>
